<svg width="120" height="96" viewBox="0 0 120 96" fill="none" xmlns="http://www.w3.org/2000/svg">
<path d="M100.8 42.4875C101.569 40.4813 102 38.2875 102 36C102 26.0625 93.9375 18 84 18C80.3063 18 76.8563 19.125 74.0063 21.0375C68.8125 12.0375 59.1188 6 48 6C31.425 6 18 19.425 18 36C18 36.5063 18.0187 37.0125 18.0375 37.5188C7.5375 41.2125 0 51.225 0 63C0 77.9062 12.0938 90 27 90H96C109.256 90 120 79.2562 120 66C120 54.3937 111.75 44.7 100.8 42.4875ZM73.7625 54H61.5V75C61.5 76.65 60.15 78 58.5 78H49.5C47.85 78 46.5 76.65 46.5 75V54H34.2375C31.5563 54 30.225 50.775 32.1188 48.8813L51.8813 29.1188C53.0438 27.9563 54.9562 27.9563 56.1187 29.1188L75.8813 48.8813C77.775 50.775 76.425 54 73.7625 54Z" fill="#5E9BFF"/>
</svg>
