<svg width="55" height="50" viewBox="0 0 55 50" fill="none" xmlns="http://www.w3.org/2000/svg">
<rect x="0.795105" width="53.9755" height="50" rx="25" fill="white"/>
<path fill-rule="evenodd" clip-rule="evenodd" d="M36.419 25C36.419 25.5757 35.9158 26.0435 35.2924 26.0435H28.9085V31.9565C28.9085 32.5322 28.4053 33 27.7819 33C27.1586 33 26.6572 32.5322 26.6572 31.9565V26.0435H20.2715C19.6481 26.0435 19.1468 25.5757 19.1468 25C19.1468 24.4243 19.6481 23.9565 20.2715 23.9565H26.6572V18.0435C26.6572 17.4678 27.1586 17 27.7819 17C28.4053 17 28.9085 17.4678 28.9085 18.0435V23.9565H35.2924C35.9158 23.9565 36.419 24.4243 36.419 25Z" fill="#626262"/>
</svg>
