<svg width="22" height="22" viewBox="0 0 22 22" fill="none" xmlns="http://www.w3.org/2000/svg">
<rect x="0.5" y="0.5" width="21" height="21" rx="3.5" stroke="#B6B6B6"/>
<path fill-rule="evenodd" clip-rule="evenodd" d="M16 11C16 11.3598 15.7087 11.6522 15.3478 11.6522C13.3067 11.6522 11.6517 13.3068 11.6517 15.3478C11.6517 15.7076 11.3604 16 10.9995 16C10.6385 16 10.3483 15.7076 10.3483 15.3478C10.3483 13.3068 8.69221 11.6522 6.65116 11.6522C6.29025 11.6522 6 11.3598 6 11C6 10.6402 6.29025 10.3478 6.65116 10.3478C8.69221 10.3478 10.3483 8.69323 10.3483 6.65217C10.3483 6.29239 10.6385 6 10.9995 6C11.3604 6 11.6517 6.29239 11.6517 6.65217C11.6517 8.69323 13.3067 10.3478 15.3478 10.3478C15.7087 10.3478 16 10.6402 16 11Z" fill="#B6B6B6"/>
</svg>
