<svg width="46" height="46" viewBox="0 0 46 46" fill="none" xmlns="http://www.w3.org/2000/svg">
<path opacity="0.5" fill-rule="evenodd" clip-rule="evenodd" d="M23 46C35.7025 46 46 35.7025 46 23C46 10.2975 35.7025 0 23 0C10.2975 0 0 10.2975 0 23C0 35.7025 10.2975 46 23 46Z" fill="#F1F1F3"/>
<path fill-rule="evenodd" clip-rule="evenodd" d="M30.4524 30.6669C30.4524 31.403 29.8608 32 29.1302 32C28.3985 32 27.807 31.403 27.807 30.6669C27.807 29.9308 28.3985 29.3337 29.1302 29.3337C29.8608 29.3337 30.4524 29.9308 30.4524 30.6669ZM23.9556 30.6669C23.9556 31.403 23.3631 32 22.6324 32C21.9018 32 21.3092 31.403 21.3092 30.6669C21.3092 29.9308 21.9018 29.3337 22.6324 29.3337C23.3631 29.3337 23.9556 29.9308 23.9556 30.6669ZM32.7325 19.7508L30.9547 25.0865C30.6413 26.0275 29.7685 26.6591 28.7846 26.6591H22.512C21.5375 26.6591 20.6678 26.0369 20.3492 25.1095L18.3016 19.1715H32.3194C32.4616 19.1715 32.5903 19.2374 32.6733 19.3535C32.7563 19.4706 32.7771 19.6149 32.7325 19.7508ZM33.6831 18.6205C33.3697 18.1803 32.858 17.9168 32.3194 17.9168H17.8689L17.0002 15.4053C16.7096 14.5646 15.9209 14 15.0377 14H12.6217C12.2781 14 12 14.2813 12 14.6274C12 14.9745 12.2781 15.2547 12.6217 15.2547H15.0377C15.3916 15.2547 15.7081 15.4816 15.8244 15.8183L16.8331 18.7366C16.8362 18.746 16.8393 18.7543 16.8425 18.7638L19.1734 25.5215C19.6653 26.9518 21.0072 27.9138 22.512 27.9138H28.7846C30.304 27.9138 31.6511 26.9383 32.1347 25.4859L33.9135 20.1492C34.0847 19.6337 33.9986 19.0617 33.6831 18.6205Z" fill="#7C7C7C"/>
</svg>
