<svg width="46" height="46" viewBox="0 0 46 46" fill="none" xmlns="http://www.w3.org/2000/svg">
<path d="M45 23C45 35.1503 35.1503 45 23 45C10.8497 45 1 35.1503 1 23C1 10.8497 10.8497 1 23 1C35.1503 1 45 10.8497 45 23Z" fill="#F5F6F9" stroke="white" stroke-width="2"/>
<path fill-rule="evenodd" clip-rule="evenodd" d="M23 27.0152C21.4915 27.0152 20.2642 25.8137 20.2642 24.339C20.2642 22.8634 21.4915 21.6619 23 21.6619C24.5085 21.6619 25.7358 22.8634 25.7358 24.339C25.7358 25.8137 24.5085 27.0152 23 27.0152ZM23 20.5554C20.867 20.5554 19.1321 22.2525 19.1321 24.339C19.1321 26.4246 20.867 28.1217 23 28.1217C25.133 28.1217 26.8679 26.4246 26.8679 24.339C26.8679 22.2525 25.133 20.5554 23 20.5554ZM31.8679 28.3967C31.8679 29.2226 31.1811 29.8935 30.3368 29.8935H15.6632C14.8189 29.8935 14.1321 29.2226 14.1321 28.3967V20.4235C14.1321 19.5985 14.8189 18.9266 15.6632 18.9266H17.75C18.4245 18.9266 19.034 18.5095 19.266 17.8875L19.8132 16.4175C19.8811 16.232 20.0642 16.1074 20.266 16.1074H25.734C25.9358 16.1074 26.1189 16.232 26.1877 16.4184L26.734 17.8885C26.966 18.5095 27.5755 18.9266 28.25 18.9266H30.3368C31.1811 18.9266 31.8679 19.5985 31.8679 20.4235V28.3967ZM30.3368 17.8202H28.25C28.0491 17.8202 27.867 17.6947 27.7972 17.5092L27.2519 16.04C27.0217 15.418 26.4113 15 25.734 15H20.266C19.5887 15 18.9783 15.418 18.7491 16.0391L18.2028 17.5082C18.133 17.6947 17.9509 17.8202 17.75 17.8202H15.6632C14.1943 17.8202 13 18.9885 13 20.4235V28.3967C13 29.8326 14.1943 31 15.6632 31H30.3368C31.8057 31 33 29.8326 33 28.3967V20.4235C33 18.9885 31.8057 17.8202 30.3368 17.8202Z" fill="#757575"/>
</svg>
