<svg width="12" height="11" viewBox="0 0 12 11" fill="none" xmlns="http://www.w3.org/2000/svg">
<path fill-rule="evenodd" clip-rule="evenodd" d="M11.0177 5.97092L6.18095 10.2791C6.08138 10.3678 5.91926 10.3678 5.81905 10.2791L0.982288 5.97092C0.34913 5.40639 0 4.65596 0 3.85721C0 3.05846 0.34913 2.30803 0.982288 1.7435C1.63715 1.16078 2.49625 0.869141 3.35599 0.869141C4.21573 0.869141 5.07484 1.16078 5.7297 1.7435C5.87905 1.87653 6.12095 1.87653 6.27094 1.7435C7.57938 0.578065 9.70863 0.578065 11.0177 1.7435C11.6509 2.30746 12 3.05789 12 3.85721C12 4.65596 11.6509 5.40696 11.0177 5.97092Z" fill="#FF4848"/>
</svg>
