<svg width="21" height="22" viewBox="0 0 21 22" fill="none" xmlns="http://www.w3.org/2000/svg">
<path fill-rule="evenodd" clip-rule="evenodd" d="M12.9418 14.1132C12.9418 15.2589 11.8478 16.1887 10.4999 16.1887C9.15201 16.1887 8.05806 15.2589 8.05806 14.1132C8.05806 12.9675 9.15201 12.0377 10.4999 12.0377C11.8478 12.0377 12.9418 12.9675 12.9418 14.1132ZM19.535 17.2265C19.535 19.1722 17.6731 20.7548 15.3839 20.7548H5.61642C3.32718 20.7548 1.46526 19.1722 1.46526 17.2265V11C1.46526 9.05429 3.32718 7.47174 5.61642 7.47174H15.3839C17.6731 7.47174 19.535 9.05429 19.535 11V17.2265ZM6.34892 4.7736C6.34892 2.82785 8.21083 1.2453 10.5001 1.2453C11.5989 1.2453 12.644 1.61266 13.4328 2.2737C14.219 2.9503 14.6512 3.8386 14.6512 4.7736V6.22643H6.34892V4.7736ZM16.1163 6.26689V4.77358C16.1163 3.50962 15.5339 2.31104 14.4692 1.39368C13.396 0.495 11.9871 0 10.5 0C7.4025 0 4.88372 2.14085 4.88372 4.77358V6.26689C2.13174 6.57302 0 8.57896 0 11V17.2264C0 19.8591 2.51878 22 5.61628 22H15.3837C18.48 22 21 19.8591 21 17.2264V11C21 8.57896 18.8683 6.57302 16.1163 6.26689Z" fill="#FF7643"/>
</svg>
