<svg width="46" height="46" viewBox="0 0 46 46" fill="none" xmlns="http://www.w3.org/2000/svg">
<path fill-rule="evenodd" clip-rule="evenodd" d="M23 46C35.7025 46 46 35.7025 46 23C46 10.2975 35.7025 0 23 0C10.2975 0 0 10.2975 0 23C0 35.7025 10.2975 46 23 46Z" fill="#F1F1F3"/>
<path fill-rule="evenodd" clip-rule="evenodd" d="M29.9645 28.8912C29.9645 29.1628 29.7495 29.3832 29.4844 29.3832H25.2276H25.2199H17.5148C17.2505 29.3832 17.0363 29.1628 17.0363 28.8912V23.7327C17.0363 20.0805 19.9355 17.1088 23.5004 17.1088C27.0645 17.1088 29.9645 20.0805 29.9645 23.7327V28.8912ZM23.5004 31.9381C22.7741 31.9381 22.1834 31.3327 22.1834 30.5885C22.1834 30.5398 22.186 30.492 22.1903 30.4442H24.8105C24.8148 30.492 24.8174 30.5398 24.8174 30.5885C24.8174 31.3327 24.2259 31.9381 23.5004 31.9381ZM25.1249 16.2292C25.3581 15.8947 25.4954 15.4867 25.4954 15.0442C25.4954 13.915 24.6024 13 23.5004 13C22.3985 13 21.5055 13.915 21.5055 15.0442C21.5055 15.4867 21.6428 15.8947 21.8751 16.2292C18.5183 16.992 16 20.0655 16 23.7327V28.8912C16 29.7478 16.6797 30.4442 17.5148 30.4442H21.1514C21.1488 30.492 21.1471 30.5398 21.1471 30.5885C21.1471 31.9186 22.2024 33 23.5004 33C24.7984 33 25.8529 31.9186 25.8529 30.5885C25.8529 30.5398 25.8512 30.492 25.8486 30.4442H29.4844C30.3203 30.4442 31 29.7478 31 28.8912V23.7327C31 20.0655 28.4826 16.992 25.1249 16.2292Z" fill="#626262"/>
</svg>
