<svg width="17" height="22" viewBox="0 0 17 22" fill="none" xmlns="http://www.w3.org/2000/svg">
<path fill-rule="evenodd" clip-rule="evenodd" d="M15.8265 17.4803C15.8265 17.7791 15.5828 18.0215 15.2823 18.0215H10.458H10.4492H1.71674C1.41724 18.0215 1.17451 17.7791 1.17451 17.4803V11.806C1.17451 7.78858 4.46019 4.51973 8.50049 4.51973C12.5398 4.51973 15.8265 7.78858 15.8265 11.806V17.4803ZM8.50049 20.8319C7.67736 20.8319 7.00789 20.166 7.00789 19.3473C7.00789 19.2938 7.01082 19.2412 7.01572 19.1887H9.98526C9.99016 19.2412 9.99309 19.2938 9.99309 19.3473C9.99309 20.166 9.32264 20.8319 8.50049 20.8319ZM10.3415 3.55212C10.6058 3.18416 10.7614 2.7354 10.7614 2.24867C10.7614 1.00655 9.74938 0 8.50049 0C7.2516 0 6.23956 1.00655 6.23956 2.24867C6.23956 2.7354 6.39519 3.18416 6.65847 3.55212C2.85405 4.39124 0 7.77204 0 11.806V17.4803C0 18.4226 0.77028 19.1887 1.71674 19.1887H5.83827C5.83534 19.2412 5.83338 19.2938 5.83338 19.3473C5.83338 20.8104 7.02942 22 8.50049 22C9.97156 22 11.1666 20.8104 11.1666 19.3473C11.1666 19.2938 11.1647 19.2412 11.1617 19.1887H15.2823C16.2297 19.1887 17 18.4226 17 17.4803V11.806C17 7.77204 14.1469 4.39124 10.3415 3.55212Z" fill="#FF7643"/>
</svg>
