<svg width="7" height="14" viewBox="0 0 7 14" fill="none" xmlns="http://www.w3.org/2000/svg">
<path fill-rule="evenodd" clip-rule="evenodd" d="M0.429352 14C0.319913 14 0.209759 13.957 0.12607 13.8717C-0.0420232 13.701 -0.0420232 13.424 0.12607 13.2533L6.05796 7.20644C6.16883 7.09269 6.16883 6.90749 6.05796 6.79374L0.12607 0.746839C-0.0420232 0.576216 -0.0420232 0.299137 0.12607 0.128514C0.293447 -0.042838 0.565257 -0.042838 0.732635 0.128514L6.66453 6.17541C6.88126 6.39562 7 6.68874 7 7.00009C7 7.31144 6.88126 7.60456 6.66453 7.82477L0.732635 13.8717C0.648946 13.957 0.538792 14 0.429352 14Z" fill="#626262"/>
</svg>
