<svg width="22" height="20" viewBox="0 0 22 20" fill="none" xmlns="http://www.w3.org/2000/svg">
<path fill-rule="evenodd" clip-rule="evenodd" d="M12.4778 18.5654C12.3838 18.7832 12.1775 18.81 12.0931 18.8119C11.9926 18.801 11.8002 18.7931 11.6976 18.5812L8.8139 12.6964L19.2072 3.07003L12.4778 18.5654ZM1.55551 9.1866C1.32464 9.09057 1.30433 8.8985 1.30647 8.82028C1.30861 8.74207 1.33747 8.55099 1.57261 8.46386L18.3008 2.23047L7.90861 11.8578L1.55551 9.1866ZM21.5682 0.37411L21.5661 0.368169C21.5575 0.351338 21.55 0.334507 21.5404 0.317676C21.5319 0.302826 21.5212 0.285995 21.5094 0.270154C21.5084 0.268174 21.5062 0.265203 21.5041 0.263223C21.4955 0.250353 21.4859 0.237482 21.4752 0.226591C21.472 0.223621 21.4688 0.219661 21.4656 0.215701C21.4528 0.20184 21.441 0.187979 21.4261 0.175108C21.4111 0.161247 21.3961 0.148377 21.3812 0.137486C21.378 0.135506 21.3748 0.132536 21.3716 0.130556C21.3587 0.119665 21.3438 0.109765 21.3277 0.100854C21.3267 0.099864 21.3256 0.0988739 21.3235 0.0978838C21.1503 -0.00805221 20.9301 -0.0308235 20.7345 0.0434307L1.09485 7.36193C0.449282 7.60152 0.0388533 8.15001 0.0249586 8.79454C0.00892619 9.43808 0.392635 10.0034 1.02538 10.2697L7.56232 13.0171L10.5283 19.0723C10.8094 19.6475 11.4026 20 12.0813 20C12.0952 20 12.108 20 12.1209 19.999C12.8156 19.9861 13.4088 19.606 13.6675 19.008L21.5682 0.815675C21.5757 0.798844 21.5821 0.782013 21.5864 0.765182C21.5875 0.764192 21.5875 0.763202 21.5875 0.762212C21.5939 0.744391 21.5981 0.72558 21.6024 0.708749C21.627 0.596872 21.6142 0.479056 21.5682 0.37411Z" fill="#FF7643"/>
</svg>
